<svg xmlns="http://www.w3.org/2000/svg" viewBox="0 0 401.49 511.1"><defs><style>.cls-1{fill:none;stroke:#1d1d1b;stroke-miterlimit:10;}</style></defs><g id="Layer_2" data-name="Layer 2"><g id="Layer_3" data-name="Layer 3"><polygon class="cls-1" points="0.5 510.6 174.11 510.6 174.11 369 224.36 369 224.36 374.68 188.39 374.68 188.39 403.02 273.43 403.02 273.43 374.68 238.53 374.68 238.53 369 400.99 369 400.99 312.75 344.3 312.75 344.3 255.62 259.17 255.62 259.17 142.37 287.32 114.22 344.32 114.22 344.32 85.87 258.98 85.87 258.98 28.85 344.3 28.85 344.3 0.5 230.33 0.5 230.33 255.62 145.76 255.62 145.76 481.95 0.5 481.95 0.5 510.6"/></g></g></svg>