<svg xmlns="http://www.w3.org/2000/svg" viewBox="0 0 528.75 541.82"><defs><style>.cls-1,.cls-2{fill:none;stroke:#1d1d1b;stroke-miterlimit:10;}.cls-2{stroke-width:2px;}</style></defs><g id="Layer_2" data-name="Layer 2"><g id="Layer_3" data-name="Layer 3"><polyline class="cls-1" points="270.59 215.17 253.79 198.36 288.7 163.45"/><polyline class="cls-1" points="284.55 236.88 340.41 181.02 312.59 153.19 298.96 153.19 296.02 156.13"/><polyline class="cls-1" points="310.93 210.5 290.75 190.33 268.25 212.83"/><polyline class="cls-1" points="290.75 190.33 283.11 182.68 302.5 163.28 306.94 167.71"/><line class="cls-1" x1="312.59" y1="153.19" x2="309.6" y2="156.19"/><line class="cls-1" x1="288.54" y1="232.89" x2="281.47" y2="225.83"/><polyline class="cls-1" points="325.78 125.37 316.47 134.68 436.44 254.65 479.33 211.75 359.37 91.78 333.43 117.72"/><line class="cls-1" x1="351.5" y1="169.71" x2="394.38" y2="126.83"/><polyline class="cls-1" points="395.62 464.42 395.62 379.88 268.31 254.01 272.46 249.85"/><polyline class="cls-1" points="210.5 144.88 247.97 182.35 278.01 152.31"/><polyline class="cls-1" points="281.68 142.01 284.55 144.88 326.89 102.54 318.13 93.78"/><line class="cls-1" x1="273.91" y1="134.24" x2="247.52" y2="107.86"/><line class="cls-1" x1="311.45" y1="87.1" x2="289.87" y2="65.51"/><line class="cls-1" x1="305.5" y1="123.93" x2="296.96" y2="115.39"/><line class="cls-1" x1="288.7" y1="107.86" x2="268.11" y2="87.27"/><line class="cls-1" x1="331.1" y1="65.51" x2="310.93" y2="45.34"/><polyline class="cls-1" points="333.98 95.66 347.62 82.03 337.75 72.16"/><polyline class="cls-1" points="357.48 72.16 370.01 59.64 332.88 22.5"/><line class="cls-1" x1="430.03" y1="91.4" x2="477.64" y2="43.79"/><polyline class="cls-1" points="423.99 97.56 404.87 116.56 370.01 81.7"/><polyline class="cls-1" points="495.27 61.41 462.62 94.06 453.2 84.63"/><polyline class="cls-2" points="194.48 247.21 178.8 247.21 178.8 215.17 194.5 215.17 194.53 219.81 194.54 210.5 1 210.5 1 136.79 63.52 136.79 63.52 161.09 194.29 161.09 354.38 1 434.86 1 518.88 85.02 527.75 85.02 527.75 540.83 395.62 540.83 395.62 464.42 385.44 464.42 268.31 347.29 268.31 254.01 227.9 254.01 227.9 304.22 194.48 304.22 194.53 232.89"/></g></g></svg>